<svg width="53" height="46" viewBox="0 0 53 46" fill="none" xmlns="http://www.w3.org/2000/svg">
<g clip-path="url(#clip0_3736_19941)">
<path d="M1.24219 4.18191C1.24219 2.56522 2.53986 1.25464 4.14062 1.25464H23.0515C24.6523 1.25464 25.95 2.56522 25.95 4.18191V44.7455H4.14062C2.53986 44.7455 1.24219 43.435 1.24219 41.8183V4.18191Z" stroke="#BB9F64" stroke-width="3"/>
<path d="M26.395 23.4058C26.395 21.7891 27.6927 20.4785 29.2935 20.4785H48.2044C49.8052 20.4785 51.1029 21.7891 51.1029 23.4058V41.8183C51.1029 43.4349 49.8052 44.7455 48.2044 44.7455H26.395V23.4058Z" stroke="#BB9F64" stroke-width="3"/>
<path d="M10.7286 8.23877H6.2666C5.80924 8.23877 5.43848 8.61322 5.43848 9.07513V10.8352C5.43848 11.2972 5.80924 11.6716 6.2666 11.6716H10.7286C11.1859 11.6716 11.5567 11.2972 11.5567 10.8352V9.07513C11.5567 8.61322 11.1859 8.23877 10.7286 8.23877Z" fill="#BB9F64"/>
<path d="M35.8814 26.0896H31.4194C30.9621 26.0896 30.5913 26.4641 30.5913 26.926V28.6861C30.5913 29.148 30.9621 29.5224 31.4194 29.5224H35.8814C36.3388 29.5224 36.7095 29.148 36.7095 28.6861V26.926C36.7095 26.4641 36.3388 26.0896 35.8814 26.0896Z" fill="#BB9F64"/>
<path d="M10.7286 17.1643H6.2666C5.80924 17.1643 5.43848 17.5388 5.43848 18.0007V19.7608C5.43848 20.2227 5.80924 20.5971 6.2666 20.5971H10.7286C11.1859 20.5971 11.5567 20.2227 11.5567 19.7608V18.0007C11.5567 17.5388 11.1859 17.1643 10.7286 17.1643Z" fill="#BB9F64"/>
<path d="M35.8814 34.3284H31.4194C30.9621 34.3284 30.5913 34.7028 30.5913 35.1647V36.9248C30.5913 37.3868 30.9621 37.7612 31.4194 37.7612H35.8814C36.3388 37.7612 36.7095 37.3868 36.7095 36.9248V35.1647C36.7095 34.7028 36.3388 34.3284 35.8814 34.3284Z" fill="#BB9F64"/>
<path d="M10.7286 26.0896H6.2666C5.80924 26.0896 5.43848 26.4641 5.43848 26.926V28.6861C5.43848 29.148 5.80924 29.5224 6.2666 29.5224H10.7286C11.1859 29.5224 11.5567 29.148 11.5567 28.6861V26.926C11.5567 26.4641 11.1859 26.0896 10.7286 26.0896Z" fill="#BB9F64"/>
<path d="M10.7286 35.0149H6.2666C5.80924 35.0149 5.43848 35.3893 5.43848 35.8513V37.6114C5.43848 38.0733 5.80924 38.4477 6.2666 38.4477H10.7286C11.1859 38.4477 11.5567 38.0733 11.5567 37.6114V35.8513C11.5567 35.3893 11.1859 35.0149 10.7286 35.0149Z" fill="#BB9F64"/>
<path d="M20.9254 8.23877H16.4634C16.006 8.23877 15.6353 8.61322 15.6353 9.07513V10.8352C15.6353 11.2972 16.006 11.6716 16.4634 11.6716H20.9254C21.3827 11.6716 21.7535 11.2972 21.7535 10.8352V9.07513C21.7535 8.61322 21.3827 8.23877 20.9254 8.23877Z" fill="#BB9F64"/>
<path d="M46.0787 26.0896H41.6167C41.1593 26.0896 40.7886 26.4641 40.7886 26.926V28.6861C40.7886 29.148 41.1593 29.5224 41.6167 29.5224H46.0787C46.536 29.5224 46.9068 29.148 46.9068 28.6861V26.926C46.9068 26.4641 46.536 26.0896 46.0787 26.0896Z" fill="#BB9F64"/>
<path d="M20.9254 17.1643H16.4634C16.006 17.1643 15.6353 17.5388 15.6353 18.0007V19.7608C15.6353 20.2227 16.006 20.5971 16.4634 20.5971H20.9254C21.3827 20.5971 21.7535 20.2227 21.7535 19.7608V18.0007C21.7535 17.5388 21.3827 17.1643 20.9254 17.1643Z" fill="#BB9F64"/>
<path d="M46.0787 34.3284H41.6167C41.1593 34.3284 40.7886 34.7028 40.7886 35.1647V36.9248C40.7886 37.3868 41.1593 37.7612 41.6167 37.7612H46.0787C46.536 37.7612 46.9068 37.3868 46.9068 36.9248V35.1647C46.9068 34.7028 46.536 34.3284 46.0787 34.3284Z" fill="#BB9F64"/>
<path d="M20.9254 26.0896H16.4634C16.006 26.0896 15.6353 26.4641 15.6353 26.926V28.6861C15.6353 29.148 16.006 29.5224 16.4634 29.5224H20.9254C21.3827 29.5224 21.7535 29.148 21.7535 28.6861V26.926C21.7535 26.4641 21.3827 26.0896 20.9254 26.0896Z" fill="#BB9F64"/>
<path d="M20.9254 35.0149H16.4634C16.006 35.0149 15.6353 35.3893 15.6353 35.8513V37.6114C15.6353 38.0733 16.006 38.4477 16.4634 38.4477H20.9254C21.3827 38.4477 21.7535 38.0733 21.7535 37.6114V35.8513C21.7535 35.3893 21.3827 35.0149 20.9254 35.0149Z" fill="#BB9F64"/>
</g>
<defs>
<clipPath id="clip0_3736_19941">
<rect width="53" height="46" fill="white"/>
</clipPath>
</defs>
</svg>
