<svg width="53" height="36" viewBox="0 0 53 36" fill="none" xmlns="http://www.w3.org/2000/svg">
<mask id="mask0_3736_20034" style="mask-type:alpha" maskUnits="userSpaceOnUse" x="0" y="0" width="32" height="32">
<path d="M30.2857 0H1.51429C0.677969 0 0 0.685862 0 1.53191V29.8723C0 30.7184 0.677969 31.4043 1.51429 31.4043H30.2857C31.122 31.4043 31.8 30.7184 31.8 29.8723V1.53191C31.8 0.685862 31.122 0 30.2857 0Z" fill="white"/>
</mask>
<g mask="url(#mask0_3736_20034)">
<path d="M30.2857 0H1.51429C0.677969 0 0 0.685862 0 1.53191V29.8723C0 30.7184 0.677969 31.4043 1.51429 31.4043H30.2857C31.122 31.4043 31.8 30.7184 31.8 29.8723V1.53191C31.8 0.685862 31.122 0 30.2857 0Z" stroke="#D1B06B" stroke-width="6"/>
</g>
<mask id="mask1_3736_20034" style="mask-type:alpha" maskUnits="userSpaceOnUse" x="29" y="7" width="24" height="25">
<path d="M29.5405 7.93956C29.5405 7.51651 29.8795 7.17358 30.2977 7.17358H43.5355C48.5534 7.17358 52.6212 11.2888 52.6212 16.3651V30.6218C52.6212 31.0448 52.2822 31.3877 51.864 31.3877H30.2977C29.8795 31.3877 29.5405 31.0448 29.5405 30.6218V7.93956Z" fill="white"/>
</mask>
<g mask="url(#mask1_3736_20034)">
<path d="M29.5405 7.93956C29.5405 7.51651 29.8795 7.17358 30.2977 7.17358H43.5355C48.5534 7.17358 52.6212 11.2888 52.6212 16.3651V30.6218C52.6212 31.0448 52.2822 31.3877 51.864 31.3877H30.2977C29.8795 31.3877 29.5405 31.0448 29.5405 30.6218V7.93956Z" stroke="#D1B06B" stroke-width="6"/>
</g>
<mask id="mask2_3736_20034" style="mask-type:alpha" maskUnits="userSpaceOnUse" x="38" y="7" width="15" height="13">
<path d="M38.9438 7.17358H43.5356C48.5535 7.17358 52.6213 11.2888 52.6213 16.3651V18.5147C52.6213 18.9377 52.2824 19.2806 51.8642 19.2806H41.2153C39.9608 19.2806 38.9438 18.2519 38.9438 16.9828V7.17358Z" fill="white"/>
</mask>
<g mask="url(#mask2_3736_20034)">
<path d="M38.9438 7.17358H43.5356C48.5535 7.17358 52.6213 11.2888 52.6213 16.3651V18.5147C52.6213 18.9377 52.2824 19.2806 51.8642 19.2806H41.2153C39.9608 19.2806 38.9438 18.2519 38.9438 16.9828V7.17358Z" stroke="#D1B06B" stroke-width="6"/>
</g>
</svg>
