<svg width="53" height="60" viewBox="0 0 53 60" fill="none" xmlns="http://www.w3.org/2000/svg">
<g clip-path="url(#clip0_3736_19967)">
<path d="M6.7373 21.0448C6.7373 10.1639 15.5853 1.34326 26.5 1.34326C37.4147 1.34326 46.2627 10.1639 46.2627 21.0448V50.597H6.7373V21.0448Z" stroke="#D1B06B" stroke-width="3"/>
<path d="M2.00546 51.2529C1.58182 51.6752 1.44557 52.1771 1.3926 52.5699C1.34738 52.9052 1.34753 53.3025 1.34767 53.6698C1.34768 53.6905 1.34769 53.7111 1.34769 53.7315V55.5226C1.34769 55.543 1.34768 55.5636 1.34767 55.5843C1.34753 55.9516 1.34738 56.3489 1.3926 56.6841C1.44557 57.077 1.58182 57.5789 2.00546 58.0012C2.4291 58.4235 2.93249 58.5593 3.32653 58.6121C3.66288 58.6572 4.06136 58.6571 4.42986 58.6569C4.4506 58.6569 4.47123 58.6569 4.49176 58.6569H48.5087H48.5706C48.9391 58.6571 49.3376 58.6572 49.6739 58.6121C50.068 58.5593 50.5714 58.4235 50.995 58.0012C51.4187 57.5789 51.5549 57.077 51.6079 56.6841C51.6531 56.3489 51.653 55.9516 51.6528 55.5843V55.5226V53.7315V53.6698C51.653 53.3025 51.6531 52.9052 51.6079 52.5699C51.5549 52.1771 51.4187 51.6752 50.995 51.2529C50.5714 50.8306 50.068 50.6948 49.6739 50.642C49.3376 50.5968 48.9391 50.597 48.5706 50.5972H48.5087H4.49176C4.47123 50.5972 4.4506 50.5972 4.42987 50.5972C4.06136 50.597 3.66288 50.5968 3.32653 50.642C2.93249 50.6948 2.4291 50.8306 2.00546 51.2529Z" stroke="#D1B06B" stroke-width="3"/>
<path d="M17.6381 27.7173V26.271H20.3411C20.8807 26.271 21.298 26.134 21.5933 25.8599C21.8987 25.5758 22.0514 25.185 22.0514 24.6877C22.0514 24.2411 21.9038 23.8656 21.6086 23.5611C21.3133 23.2567 20.8959 23.1044 20.3563 23.1044H17.6381V21.582H20.4327C21.1046 21.582 21.6951 21.719 22.2041 21.9931C22.7132 22.257 23.1051 22.6224 23.38 23.0892C23.6651 23.5459 23.8076 24.0686 23.8076 24.6573C23.8076 25.2763 23.6651 25.8143 23.38 26.271C23.1051 26.7277 22.7132 27.083 22.2041 27.3367C21.6951 27.5904 21.1046 27.7173 20.4327 27.7173H17.6381ZM16.4316 32.2387V21.582H18.1878V32.2387H16.4316ZM22.2958 32.2387L18.5543 27.6107L20.1884 27.017L24.5101 32.2387H22.2958ZM25.8121 32.2387V21.582H27.5683V32.2387H25.8121ZM31.0898 28.2196V26.6973H33.7623C34.1288 26.6973 34.4495 26.6262 34.7244 26.4841C35.0094 26.3319 35.2334 26.1239 35.3963 25.8599C35.5592 25.5859 35.6406 25.2662 35.6406 24.9008C35.6406 24.5355 35.5592 24.2209 35.3963 23.957C35.2334 23.6829 35.0094 23.4749 34.7244 23.3328C34.4495 23.1805 34.1288 23.1044 33.7623 23.1044H31.0898V21.582H33.8539C34.5258 21.582 35.1265 21.719 35.6559 21.9931C36.1955 22.2671 36.618 22.6528 36.9234 23.1501C37.239 23.6474 37.3968 24.231 37.3968 24.9008C37.3968 25.5707 37.239 26.1543 36.9234 26.6516C36.618 27.1489 36.1955 27.5346 35.6559 27.8086C35.1265 28.0826 34.5258 28.2196 33.8539 28.2196H31.0898ZM29.8834 32.2387V21.582H31.6396V32.2387H29.8834Z" fill="#D1B06B"/>
<path d="M16.3042 36.582H36.6957" stroke="#D1B06B" stroke-width="2.3" stroke-linecap="round"/>
<path d="M11.8125 41.9551H41.1871" stroke="#D1B06B" stroke-width="2.3" stroke-linecap="round"/>
</g>
<defs>
<clipPath id="clip0_3736_19967">
<rect width="53" height="60" fill="white"/>
</clipPath>
</defs>
</svg>
