<svg width="32" height="26" viewBox="0 0 32 26" fill="none" xmlns="http://www.w3.org/2000/svg">
<g clip-path="url(#clip0_3736_20280)">
<path d="M14.8856 3.87481L9.41055 14.0748L5.96055 15.0498C6.36055 14.2998 6.81055 13.6998 7.31055 13.2498C7.81055 12.7498 8.38555 12.4998 9.03555 12.4998C10.4856 12.4998 11.7856 13.0998 12.9356 14.2998C14.1356 15.4498 14.7356 16.9498 14.7356 18.7998C14.7356 20.7498 14.0606 22.4248 12.7106 23.8248C11.4106 25.2248 9.78555 25.9248 7.83555 25.9248C5.98555 25.9248 4.36055 25.2498 2.96055 23.8998C1.61055 22.4998 0.935547 20.7998 0.935547 18.7998C0.935547 17.9998 1.08555 17.0748 1.38555 16.0248C1.73555 14.9748 2.36055 13.5998 3.26055 11.8998L9.26055 0.799805L14.8856 3.87481ZM31.7606 3.87481L26.2856 14.0748L22.9106 15.0498C23.2606 14.2998 23.6856 13.6998 24.1856 13.2498C24.7356 12.7498 25.3106 12.4998 25.9106 12.4998C27.3606 12.4998 28.6856 13.0998 29.8856 14.2998C31.0856 15.4498 31.6856 16.9498 31.6856 18.7998C31.6856 20.7498 31.0106 22.4248 29.6606 23.8248C28.3606 25.2248 26.7356 25.9248 24.7856 25.9248C22.9356 25.9248 21.3106 25.2498 19.9106 23.8998C18.5606 22.4998 17.8856 20.7998 17.8856 18.7998C17.8856 17.9998 18.0356 17.0748 18.3356 16.0248C18.6356 14.9748 19.2356 13.5998 20.1356 11.8998L26.2106 0.799805L31.7606 3.87481Z" fill="#D1B06B"/>
</g>
<defs>
<clipPath id="clip0_3736_20280">
<rect width="32" height="26" fill="white"/>
</clipPath>
</defs>
</svg>
