<svg width="58" height="56" viewBox="0 0 58 56" fill="none" xmlns="http://www.w3.org/2000/svg">
<g clip-path="url(#clip0_3736_19896)">
<path d="M51.9311 4.55926L48.0863 13.0446C47.91 13.4335 47.8188 13.8557 47.8188 14.2827V52.1315C47.8188 53.2361 48.7143 54.1315 49.8188 54.1315H54.9543C56.0589 54.1315 56.9543 53.2361 56.9543 52.1315V14.2827C56.9543 13.8557 56.863 13.4335 56.6868 13.0446L52.8419 4.55926C52.6645 4.16774 52.1085 4.16774 51.9311 4.55926Z" stroke="#D1B06B" stroke-width="2"/>
<path d="M47.8188 14.2827H52.9576H56.9543" stroke="#D1B06B" stroke-width="2"/>
<path d="M33.671 24.3362H8.00081C7.35639 24.3362 6.83398 24.8586 6.83398 25.503C6.83398 26.1474 7.35639 26.6698 8.00081 26.6698H33.671C34.3154 26.6698 34.8378 26.1474 34.8378 25.503C34.8378 24.8586 34.3154 24.3362 33.671 24.3362Z" fill="#D1B06B"/>
<path d="M16.8353 8.16748H9.66748C8.83905 8.16748 8.16748 8.83905 8.16748 9.66748V14.5016C8.16748 15.33 8.83905 16.0016 9.66748 16.0016H16.8353C17.6637 16.0016 18.3353 15.33 18.3353 14.5016V9.66748C18.3353 8.83905 17.6637 8.16748 16.8353 8.16748Z" stroke="#D1B06B" stroke-width="2"/>
<path d="M33.671 36.0046H8.00081C7.35639 36.0046 6.83398 36.527 6.83398 37.1715C6.83398 37.8159 7.35639 38.3383 8.00081 38.3383H33.671C34.3154 38.3383 34.8378 37.8159 34.8378 37.1715C34.8378 36.527 34.3154 36.0046 33.671 36.0046Z" fill="#D1B06B"/>
<path d="M23.1696 41.8386H8.00081C7.35639 41.8386 6.83398 42.361 6.83398 43.0054C6.83398 43.6499 7.35639 44.1723 8.00081 44.1723H23.1696C23.814 44.1723 24.3364 43.6499 24.3364 43.0054C24.3364 42.361 23.814 41.8386 23.1696 41.8386Z" fill="#D1B06B"/>
<path d="M33.671 30.1704H8.00081C7.35639 30.1704 6.83398 30.6928 6.83398 31.3372C6.83398 31.9817 7.35639 32.5041 8.00081 32.5041H33.671C34.3154 32.5041 34.8378 31.9817 34.8378 31.3372C34.8378 30.6928 34.3154 30.1704 33.671 30.1704Z" fill="#D1B06B"/>
<path d="M47.8188 49.0225H56.9543" stroke="#D1B06B" stroke-width="2"/>
<path d="M1 7.99975V47.3846C1 51.2506 4.13401 54.3846 8 54.3846H34.2603C38.1263 54.3846 41.2603 51.2506 41.2603 47.3846V15.728C41.2603 13.7405 40.4154 11.8467 38.9365 10.519L30.3278 2.7908C29.0432 1.63762 27.3778 0.999756 25.6516 0.999756H8C4.13401 0.999756 1 4.13376 1 7.99975Z" stroke="#D1B06B" stroke-width="2"/>
<path d="M25.981 1.2168V10.8885C25.981 13.0977 27.7719 14.8885 29.981 14.8885H40.2904" stroke="#D1B06B" stroke-width="2" stroke-linecap="round"/>
</g>
<defs>
<clipPath id="clip0_3736_19896">
<rect width="58" height="56" fill="white"/>
</clipPath>
</defs>
</svg>
