<svg width="21" height="17" viewBox="0 0 21 17" fill="none" xmlns="http://www.w3.org/2000/svg">
<path d="M20.9732 1.98809C20.1865 2.32993 19.3541 2.55514 18.5023 2.65661C19.3975 2.13245 20.0707 1.29972 20.3956 0.314605C19.5493 0.809483 18.6249 1.15671 17.6621 1.34142C17.2566 0.916503 16.769 0.578473 16.2289 0.347873C15.6887 0.117276 15.1073 -0.00107859 14.52 7.4064e-06C12.1422 7.4064e-06 10.2179 1.89633 10.2179 4.23397C10.2162 4.55913 10.2535 4.88332 10.3289 5.19961C8.62379 5.11968 6.95416 4.68471 5.42681 3.92254C3.89946 3.16037 2.54802 2.08778 1.45895 0.773393C1.07687 1.4175 0.874811 2.1524 0.873881 2.9013C0.873881 4.36942 1.63984 5.66714 2.79643 6.42742C2.11118 6.41116 1.43998 6.22979 0.839801 5.89872V5.95115C0.839801 8.00478 2.3254 9.71327 4.29164 10.1021C3.9219 10.2007 3.54088 10.2506 3.15822 10.2507C2.88669 10.2512 2.61578 10.2248 2.34944 10.172C2.89605 11.8543 4.48696 13.0777 6.37149 13.1127C4.84017 14.2928 2.96011 14.9307 1.02681 14.926C0.683651 14.9255 0.340799 14.905 0 14.8648C1.96675 16.1207 4.25295 16.785 6.58646 16.7786C14.5109 16.7786 18.8401 10.325 18.8401 4.72771C18.8401 4.5442 18.8353 4.36068 18.8265 4.18154C19.6668 3.58383 20.3938 2.84105 20.9732 1.98809Z" fill="white"/>
</svg>
